HIERARCHY
ROOT Hips
{
    OFFSET 0.000000 0.000000 0.000000
    CHANNELS 6 Xposition Yposition Zposition Zrotation Yrotation Xrotation
    JOINT Chest
    {
        OFFSET 0.000000 1.634758 -0.000000
        CHANNELS 3 Zrotation Yrotation Xrotation
        JOINT Chest2
        {
            OFFSET 0.000000 2.197341 0.000000
            CHANNELS 3 Zrotation Yrotation Xrotation
            JOINT Neck
            {
                OFFSET 0.000000 0.961544 0.000000
                CHANNELS 3 Zrotation Yrotation Xrotation
                JOINT Head
                {
                    OFFSET 0.000000 0.632542 -0.032565
                    CHANNELS 3 Zrotation Yrotation Xrotation
                    End Site
                    {
                        OFFSET -0.000001 0.439502 2.922845
                    }
                }
            }
            JOINT LeftCollar
            {
                OFFSET 0.167536 0.778237 -0.168280
                CHANNELS 3 Zrotation Yrotation Xrotation
                JOINT LeftShoulder
                {
                    OFFSET 0.831514 -0.002900 0.006458
                    CHANNELS 3 Zrotation Yrotation Xrotation
                    JOINT LeftElbow
                    {
                        OFFSET 2.272872 -0.026639 0.059314
                        CHANNELS 3 Zrotation Yrotation Xrotation
                        JOINT LeftWrist
                        {
                            OFFSET 2.081982 -0.024402 0.054333
                            CHANNELS 3 Zrotation Yrotation Xrotation
                            JOINT LeftHandThumb1
                            {
                                OFFSET 0.218903 -0.128645 0.283837
                                CHANNELS 3 Zrotation Yrotation Xrotation
                                JOINT LeftHandThumb2
                                {
                                    OFFSET 0.137157 -0.025101 0.077902
                                    CHANNELS 3 Zrotation Yrotation Xrotation
                                    JOINT LeftHandThumb3
                                    {
                                        OFFSET 0.171738 -0.062778 -0.010216
                                        CHANNELS 3 Zrotation Yrotation Xrotation
                                        End Site
                                        {
                                            OFFSET 0.106437 -0.057744 -0.239109
                                        }
                                    }
                                }
                            }
                            JOINT LeftHandFore1
                            {
                                OFFSET 0.767340 -0.016076 0.196678
                                CHANNELS 3 Zrotation Yrotation Xrotation
                                JOINT LeftHandFore2
                                {
                                    OFFSET -0.030961 -0.214541 0.002943
                                    CHANNELS 3 Zrotation Yrotation Xrotation
                                    JOINT LeftHandFore3
                                    {
                                        OFFSET -0.128408 0.015295 -0.006351
                                        CHANNELS 3 Zrotation Yrotation Xrotation
                                        End Site
                                        {
                                            OFFSET -0.008791 0.190691 0.030437
                                        }
                                    }
                                }
                            }
                            JOINT LeftHandMiddle1
                            {
                                OFFSET 0.709887 -0.008320 0.018526
                                CHANNELS 3 Zrotation Yrotation Xrotation
                                JOINT LeftHandMiddle2
                                {
                                    OFFSET 0.003459 -0.245031 0.003407
                                    CHANNELS 3 Zrotation Yrotation Xrotation
                                    JOINT LeftHandMiddle3
                                    {
                                        OFFSET -0.144500 -0.022312 -0.002292
                                        CHANNELS 3 Zrotation Yrotation Xrotation
                                        End Site
                                        {
                                            OFFSET -0.058831 0.218922 0.065136
                                        }
                                    }
                                }
                            }
                            JOINT LeftHandRing1
                            {
                                OFFSET 0.743817 -0.005823 -0.153668
                                CHANNELS 3 Zrotation Yrotation Xrotation
                                JOINT LeftHandRing2
                                {
                                    OFFSET 0.007856 -0.350346 -0.043926
                                    CHANNELS 3 Zrotation Yrotation Xrotation
                                    JOINT LeftHandRing3
                                    {
                                        OFFSET -0.132442 -0.013304 -0.029794
                                        CHANNELS 3 Zrotation Yrotation Xrotation
                                        End Site
                                        {
                                            OFFSET -0.031150 0.109617 0.037862
                                        }
                                    }
                                }
                            }
                            JOINT LeftHandLittle1
                            {
                                OFFSET 0.689408 -0.053302 -0.308304
                                CHANNELS 3 Zrotation Yrotation Xrotation
                                JOINT LeftHandLittle2
                                {
                                    OFFSET 0.004535 -0.191730 -0.035685
                                    CHANNELS 3 Zrotation Yrotation Xrotation
                                    JOINT LeftHandLittle3
                                    {
                                        OFFSET -0.109984 -0.005228 -0.048708
                                        CHANNELS 3 Zrotation Yrotation Xrotation
                                        End Site
                                        {
                                            OFFSET -0.026624 0.188405 -0.009133
                                        }
                                    }
                                }
                            }
                        }
                    }
                }
            }
            JOINT RightCollar
            {
                OFFSET -0.167536 0.778237 -0.168280
                CHANNELS 3 Zrotation Yrotation Xrotation
                JOINT RightShoulder
                {
                    OFFSET -0.831514 -0.002900 0.006457
                    CHANNELS 3 Zrotation Yrotation Xrotation
                    JOINT RightElbow
                    {
                        OFFSET -2.272872 -0.026639 0.059313
                        CHANNELS 3 Zrotation Yrotation Xrotation
                        JOINT RightWrist
                        {
                            OFFSET -2.081982 -0.024402 0.054331
                            CHANNELS 3 Zrotation Yrotation Xrotation
                            JOINT RightHandThumb1
                            {
                                OFFSET -0.218911 -0.128571 0.283837
                                CHANNELS 3 Zrotation Yrotation Xrotation
                                JOINT RightHandThumb2
                                {
                                    OFFSET -0.137157 -0.025101 0.077902
                                    CHANNELS 3 Zrotation Yrotation Xrotation
                                    JOINT RightHandThumb3
                                    {
                                        OFFSET -0.145887 -0.108798 0.020477
                                        CHANNELS 3 Zrotation Yrotation Xrotation
                                        End Site
                                        {
                                            OFFSET -0.003348 -0.241194 -0.116837
                                        }
                                    }
                                }
                            }
                            JOINT RightHandFore1
                            {
                                OFFSET -0.767344 -0.015991 0.196679
                                CHANNELS 3 Zrotation Yrotation Xrotation
                                JOINT RightHandFore2
                                {
                                    OFFSET 0.030913 -0.214552 0.002935
                                    CHANNELS 3 Zrotation Yrotation Xrotation
                                    JOINT RightHandFore3
                                    {
                                        OFFSET 0.127121 0.015429 0.019083
                                        CHANNELS 3 Zrotation Yrotation Xrotation
                                        End Site
                                        {
                                            OFFSET 0.011956 0.190292 -0.031824
                                        }
                                    }
                                }
                            }
                            JOINT RightHandMiddle1
                            {
                                OFFSET -0.709887 -0.008302 0.018525
                                CHANNELS 3 Zrotation Yrotation Xrotation
                                JOINT RightHandMiddle2
                                {
                                    OFFSET -0.003436 -0.245028 0.003417
                                    CHANNELS 3 Zrotation Yrotation Xrotation
                                    JOINT RightHandMiddle3
                                    {
                                        OFFSET 0.139284 -0.021651 0.038932
                                        CHANNELS 3 Zrotation Yrotation Xrotation
                                        End Site
                                        {
                                            OFFSET 0.074069 0.217033 -0.055141
                                        }
                                    }
                                }
                            }
                            JOINT RightHandRing1
                            {
                                OFFSET -0.743819 -0.005785 -0.153669
                                CHANNELS 3 Zrotation Yrotation Xrotation
                                JOINT RightHandRing2
                                {
                                    OFFSET -0.007882 -0.350346 -0.043924
                                    CHANNELS 3 Zrotation Yrotation Xrotation
                                    JOINT RightHandRing3
                                    {
                                        OFFSET 0.134322 -0.018858 0.014384
                                        CHANNELS 3 Zrotation Yrotation Xrotation
                                        End Site
                                        {
                                            OFFSET 0.029013 0.115912 -0.011945
                                        }
                                    }
                                }
                            }
                            JOINT RightHandLittle1
                            {
                                OFFSET -0.689403 -0.053298 -0.308303
                                CHANNELS 3 Zrotation Yrotation Xrotation
                                JOINT RightHandLittle2
                                {
                                    OFFSET -0.004541 -0.191732 -0.035685
                                    CHANNELS 3 Zrotation Yrotation Xrotation
                                    JOINT RightHandLittle3
                                    {
                                        OFFSET 0.118603 -0.016766 0.012163
                                        CHANNELS 3 Zrotation Yrotation Xrotation
                                        End Site
                                        {
                                            OFFSET 0.037612 0.173685 0.068611
                                        }
                                    }
                                }
                            }
                        }
                    }
                }
            }
        }
    }
    JOINT LeftHip
    {
        OFFSET 0.685143 0.673822 -0.044491
        CHANNELS 3 Zrotation Yrotation Xrotation
        JOINT LeftKnee
        {
            OFFSET 0.085364 -3.750208 0.017676
            CHANNELS 3 Zrotation Yrotation Xrotation
            JOINT LeftAnkle
            {
                OFFSET 0.094583 -4.155206 0.019585
                CHANNELS 3 Zrotation Yrotation Xrotation
                JOINT LeftToe
                {
                    OFFSET -0.000000 -0.395925 0.621478
                    CHANNELS 3 Zrotation Yrotation Xrotation
                    End Site
                    {
                        OFFSET -0.000000 -0.077878 0.321152
                    }
                }
            }
        }
    }
    JOINT RightHip
    {
        OFFSET -0.685143 0.673822 -0.044492
        CHANNELS 3 Zrotation Yrotation Xrotation
        JOINT RightKnee
        {
            OFFSET -0.085364 -3.750208 0.017677
            CHANNELS 3 Zrotation Yrotation Xrotation
            JOINT RightAnkle
            {
                OFFSET -0.094583 -4.155206 0.019585
                CHANNELS 3 Zrotation Yrotation Xrotation
                JOINT RightToe
                {
                    OFFSET -0.000000 -0.395925 0.621478
                    CHANNELS 3 Zrotation Yrotation Xrotation
                    End Site
                    {
                        OFFSET -0.000000 -0.077878 0.321152
                    }
                }
            }
        }
    }
}
MOTION
Frames: 5
Frame Time: 0.033333
-3.205305 4.542714 -3.304151 0.000000 -90.000000 0.037689 -0.814070 -0.079494 8.627066 -0.800270 0.062022 -3.676886 0.038319 -0.323349 -7.390355 0.021332 -0.414420 -11.868189 -9.686875 -4.694273 0.003103 -70.662987 -27.170568 82.794548 23.701414 -88.381744 -24.367716 23.675865 -27.835466 -147.429520 -0.000009 -0.000017 -0.000006 0.607493 -15.846901 -16.779303 38.911564 -48.375172 -48.623623 74.215057 -0.710092 -9.018738 68.192253 2.477343 -12.363401 64.643265 -22.147062 -6.819583 66.417068 -5.587316 -3.424870 65.158463 -0.382560 -5.829340 66.048203 -2.720966 -13.562049 63.680660 1.500718 -2.932989 63.199924 1.040924 -18.561209 61.401291 -3.080433 -25.250265 66.450638 5.326968 1.227027 61.427773 8.149368 -9.876264 60.814796 22.786406 -27.428358 5.474521 14.366796 -0.062762 38.970249 57.954948 17.975088 -0.000107 1.357870 -0.015919 15.312942 7.314558 -35.831696 0.000010 0.000011 -0.000005 0.000003 -0.000003 0.000000 0.000014 -0.000007 0.000010 -0.000054 -0.000007 -0.000002 0.000056 -0.000001 -0.000010 -0.000090 -0.000031 0.000017 -0.000012 -0.000005 0.000002 -0.000006 -0.000003 0.000003 -0.000050 -0.000013 0.000010 -0.000009 -0.000006 0.000005 -0.000021 0.000008 0.000005 -0.000001 0.000001 -0.000003 0.000011 0.000004 0.000002 0.000028 -0.000004 0.000002 0.000034 -0.000013 -0.000003 -14.260665 -2.857955 -87.127945 1.653636 1.256198 105.554558 5.801774 9.826920 -25.805552 -0.000001 -0.000002 0.000004 -5.764994 0.217972 18.596352 -0.870551 -1.229871 70.585999 5.860867 -56.490932 -43.367233 0.000004 0.000005 0.000003
-3.163078 4.704474 -3.305827 0.000000 -90.000000 -0.000014 -0.483241 -0.046572 8.764433 -0.475172 0.037778 -3.536057 0.490709 -0.070620 -7.633770 0.000363 -0.007139 -12.345647 -9.095703 -4.746181 -0.005722 -70.197189 -33.189350 86.129791 158.449417 -88.126144 -159.134796 23.553427 -27.315775 -147.164932 -0.000007 0.000005 0.000003 0.607495 -15.846900 -16.779303 38.911568 -48.375172 -48.623623 74.215065 -0.710106 -9.018729 68.192261 2.477347 -12.363399 64.643272 -22.147062 -6.819585 66.417068 -5.587335 -3.424860 65.158463 -0.382559 -5.829341 66.048203 -2.720965 -13.562047 63.680656 1.500700 -2.932986 63.199924 1.040928 -18.561207 61.401291 -3.080427 -25.250265 66.450645 5.326953 1.227021 61.427780 8.149367 -9.876263 60.814796 22.786406 -27.428354 4.929596 14.416757 -0.057567 32.800251 51.119606 14.390325 -0.040583 19.734303 -0.240636 15.349527 8.330252 -35.563881 -0.000002 0.000009 0.000002 0.000009 0.000006 -0.000002 0.000013 -0.000011 0.000015 -0.000062 -0.000010 0.000000 0.000057 -0.000000 -0.000009 -0.000090 -0.000032 0.000017 -0.000025 -0.000003 0.000002 -0.000005 0.000002 -0.000005 -0.000050 -0.000015 0.000012 -0.000020 -0.000002 0.000005 -0.000020 0.000010 0.000003 -0.000001 -0.000003 -0.000005 0.000003 0.000004 0.000000 0.000026 -0.000005 0.000005 0.000035 -0.000011 -0.000010 -13.965891 -2.815084 -85.686203 1.611222 1.267235 103.628571 5.825360 9.640849 -25.271084 -0.000000 0.000004 0.000002 -5.435638 0.233125 18.080887 -0.838432 -1.218077 69.082405 6.370193 -57.201088 -42.554291 -0.000002 -0.000009 0.000002
-3.047026 5.137994 -3.307089 0.000000 -90.000000 -0.000014 -0.225899 -0.021220 9.023129 -0.222206 0.018495 -3.272318 0.947399 0.142844 -7.689027 -0.017796 0.345565 -12.512725 -8.371911 -5.096837 -0.013154 -69.325691 -42.059494 89.245079 170.966125 -85.403770 -171.668091 23.437868 -26.811604 -146.910889 -0.000007 -0.000000 0.000005 0.607493 -15.846900 -16.779303 38.911564 -48.375172 -48.623623 74.215065 -0.710102 -9.018729 68.192261 2.477345 -12.363399 64.643265 -22.147058 -6.819582 66.417068 -5.587328 -3.424859 65.158470 -0.382559 -5.829339 66.048203 -2.720963 -13.562049 63.680660 1.500712 -2.932975 63.199924 1.040928 -18.561209 61.401291 -3.080434 -25.250267 66.450653 5.326959 1.227034 61.427780 8.149364 -9.876259 60.814796 22.786407 -27.428360 4.609881 14.537320 -0.054521 31.003649 51.029182 13.811408 -0.052307 22.206932 -0.273806 15.391038 9.345774 -35.294693 0.000007 0.000003 0.000007 0.000000 0.000005 0.000000 0.000015 -0.000013 0.000012 -0.000063 -0.000003 0.000005 0.000054 -0.000004 -0.000010 -0.000086 -0.000034 0.000014 -0.000026 0.000001 0.000002 -0.000005 -0.000003 -0.000002 -0.000050 -0.000014 0.000010 -0.000014 -0.000002 0.000009 -0.000016 0.000002 0.000003 -0.000005 0.000003 -0.000002 0.000009 0.000004 0.000005 0.000023 -0.000005 0.000002 0.000032 -0.000009 -0.000002 -12.961871 -2.771392 -80.750511 1.455381 1.295125 96.667305 5.696876 9.065677 -23.215710 0.000002 0.000003 0.000002 -4.691067 0.294726 16.940241 -0.743954 -1.177636 64.565254 6.667234 -58.458717 -39.422802 -0.000002 -0.000003 0.000009
-2.879012 5.765627 -3.307884 0.000000 -90.000000 -0.000014 -0.059234 -0.005381 9.333117 -0.058268 0.005109 -2.956464 1.409573 0.308256 -7.886536 -0.032375 0.628722 -12.871388 -9.056088 -4.949492 -0.015992 -69.589233 -34.413319 85.506622 151.441162 -88.572296 -152.123672 23.339437 -26.371090 -146.690933 -0.000007 -0.000001 0.000009 0.607495 -15.846898 -16.779299 38.911560 -48.375172 -48.623619 74.215073 -0.710098 -9.018730 68.192261 2.477343 -12.363400 64.643272 -22.147062 -6.819580 66.417068 -5.587333 -3.424858 65.158463 -0.382559 -5.829340 66.048203 -2.720967 -13.562050 63.680656 1.500706 -2.932975 63.199924 1.040930 -18.561211 61.401283 -3.080431 -25.250265 66.450638 5.326953 1.227036 61.427780 8.149373 -9.876261 60.814796 22.786406 -27.428360 4.565564 14.823978 -0.053590 32.718842 56.605293 15.432693 -0.011264 10.733841 -0.127218 15.437534 10.361083 -35.023926 -0.000001 0.000003 -0.000015 0.000001 0.000008 -0.000003 0.000013 -0.000009 0.000009 -0.000050 -0.000002 -0.000019 0.000055 -0.000002 -0.000010 -0.000091 -0.000035 0.000019 -0.000006 0.000007 -0.000024 -0.000003 -0.000005 -0.000002 -0.000049 -0.000015 0.000012 -0.000012 0.000007 -0.000024 -0.000023 0.000002 0.000003 0.000001 0.000000 -0.000002 0.000006 0.000009 -0.000022 0.000026 -0.000002 0.000010 0.000033 -0.000011 -0.000005 -11.728525 -2.706316 -73.111435 1.195749 1.299449 85.237694 5.702151 8.240860 -19.378662 -0.000000 0.000003 0.000001 -6.154195 -1.850084 16.552221 -0.578090 -1.083308 56.173027 2.606574 -57.250023 -31.962841 0.000003 0.000005 0.000002
-2.679819 6.509728 -3.308160 0.000000 -90.000000 -0.000014 0.000002 0.000011 9.596495 0.000014 -0.000002 -2.688001 1.879860 0.416205 -7.972532 -0.042531 0.825983 -12.998196 -10.797739 -3.786816 -0.013229 -58.350937 -36.182175 97.695198 0.000000 -90.000000 -0.676814 -6.674201 -12.940903 -101.149132 -0.000013 0.000003 -0.000011 0.607493 -15.846900 -16.779306 38.911564 -48.375168 -48.623619 74.215073 -0.710079 -9.018733 68.192261 2.477347 -12.363399 64.643272 -22.147058 -6.819584 66.417061 -5.587308 -3.424865 65.158470 -0.382560 -5.829339 66.048203 -2.720965 -13.562052 63.680656 1.500730 -2.932989 63.199924 1.040920 -18.561207 61.401283 -3.080429 -25.250259 66.450645 5.326980 1.227030 61.427773 8.149369 -9.876262 60.814796 22.786407 -27.428360 3.816025 13.035930 -0.046279 18.573046 38.262348 11.405104 -0.129880 33.341602 -0.441034 30.631872 10.059614 -31.502106 -0.000003 0.000006 0.000000 -2.427785 1.926094 0.374418 -7.065865 5.810470 -3.971630 -9.110523 0.144461 -1.305066 -9.394298 0.489475 2.747507 -8.713916 -4.019443 0.700354 -9.084426 0.845474 -0.493543 -8.197301 0.288702 2.963745 -9.109856 -0.927267 3.321958 -9.306502 -0.124207 -0.491560 -8.542177 1.896009 1.416394 -9.182355 0.533346 1.652168 -10.003758 -0.718875 0.016423 -7.877129 3.416140 -1.470024 -9.063096 4.779247 1.321764 -10.599411 -2.597424 -63.175304 0.844042 1.220154 69.343803 5.982294 7.230422 -13.370150 0.000001 0.000002 -0.000003 -15.070872 -13.196572 19.818583 -0.336184 -0.873982 42.080723 -8.331606 -44.760120 -20.804943 0.000000 0.000003 -0.000002
